Fungal-Grow 600 Thickness 1000.ufo
<glyph name="semicolon" format="1">
  <advance width="690"/>
  <unicode hex="003B"/>
  <outline>
    <contour>
      <point x="240" y="1059" type="line"/>
      <point x="451" y="1059" type="line"/>
      <point x="451" y="805" type="line"/>
      <point x="240" y="805" type="line"/>
    </contour>
    <contour>
      <point x="240" y="254" type="line"/>
      <point x="451" y="254" type="line"/>
      <point x="451" y="82" type="line"/>
      <point x="287" y="-238" type="line"/>
      <point x="158" y="-238" type="line"/>
      <point x="240" y="82" type="line"/>
    </contour>
    <component base="blob2" xScale="1.3325" yScale="-1.3325" xOffset="-104" yOffset="-693"/>
    <component base="blob3" xScale="1.1474" yScale="-1.1474" xOffset="-473" yOffset="-2240"/>
    <component base="blob4" xScale="1.0077" yScale="-1.0077" xOffset="-230" yOffset="-2627"/>
    <component base="blob6" xScale="1.3239" yScale="-1.3239" xOffset="-761" yOffset="-4208"/>
    <component base="blob8" xScale="0.8085" yScale="-0.8085" xOffset="-1310" yOffset="-6262"/>
    <component base="blob1" xScale="1.2766" yScale="-1.2766" xOffset="185" yOffset="-125"/>
    <component base="blob2" xScale="1.2687" yScale="-1.2687" xOffset="340" yOffset="407"/>
    <component base="blob2" xScale="1.0617" yScale="-1.0617" xOffset="234" yOffset="893"/>
    <component base="blob3" xScale="0.8862" yScale="-0.8862" xOffset="146" yOffset="1322"/>
    <component base="blob2" xScale="1.1474" yScale="-1.1474" xOffset="-361" yOffset="-1221"/>
    <component base="blob4" xScale="1.2111" yScale="-1.2111" xOffset="-271" yOffset="-3116"/>
    <component base="blob5" xScale="1.476" yScale="-1.476" xOffset="-403" yOffset="-3725"/>
    <component base="blob6" xScale="1.2029" yScale="-1.2029" xOffset="-1150" yOffset="-4566"/>
    <component base="blob7" xScale="1.4452" yScale="-1.4452" xOffset="-1351" yOffset="-5129"/>
    <component base="blob9" xScale="0.5587" yScale="-0.5587" xOffset="-1114" yOffset="-6517"/>
    <component base="blob9" xScale="0.5587" yScale="-0.5587" xOffset="-908" yOffset="-6657"/>
    <component base="blob2" xScale="1.1474" yScale="-1.1474" xOffset="-512" yOffset="-1736"/>
    <component base="blob8" xScale="1.3703" yScale="-1.3703" xOffset="-1501" yOffset="-5820"/>
  </outline>
</glyph>
<glyph name="G" format="1">
  <advance width="1587"/>
  <unicode hex="0047"/>
  <outline>
    <contour>
      <point x="1219" y="213" type="curve"/>
      <point x="1219" y="213" type="line"/>
      <point x="1219" y="614" type="line"/>
      <point x="889" y="614" type="line"/>
      <point x="889" y="780" type="line"/>
      <point x="1419" y="780" type="line"/>
      <point x="1419" y="139" type="line"/>
      <point x="1263" y="28.333"/>
      <point x="1073.333" y="-29"/>
      <point x="860" y="-29" type="curve" smooth="yes"/>
      <point x="393.333" y="-29"/>
      <point x="115" y="258.333"/>
      <point x="115" y="745" type="curve" smooth="yes"/>
      <point x="115" y="1233"/>
      <point x="393.333" y="1520"/>
      <point x="860" y="1520" type="curve" smooth="yes"/>
      <point x="1054.667" y="1520"/>
      <point x="1232" y="1471.333"/>
      <point x="1380" y="1378" type="curve"/>
      <point x="1380" y="1163" type="line"/>
      <point x="1230.667" y="1289.667"/>
      <point x="1062.333" y="1354"/>
      <point x="877" y="1354" type="curve" smooth="yes"/>
      <point x="511.667" y="1354"/>
      <point x="328" y="1149"/>
      <point x="328" y="745" type="curve" smooth="yes"/>
      <point x="328" y="342.333"/>
      <point x="511.667" y="137"/>
      <point x="877" y="137" type="curve" smooth="yes"/>
      <point x="1019.667" y="137"/>
      <point x="1129.667" y="161"/>
    </contour>
    <component base="blob1" xScale="0" xyScale="-1.2886" yScale="0" yxScale="1.2886" xOffset="1553" yOffset="1155"/>
    <component base="blob2" xScale="0" xyScale="-1" yScale="0" yxScale="1" xOffset="1968" yOffset="778"/>
    <component base="blob3" xScale="0" xyScale="-1" yScale="0" yxScale="1" xOffset="2180" yOffset="321"/>
    <component base="blob4" xScale="0" xyScale="-0.8783" yScale="0" yxScale="0.8783" xOffset="2354" yOffset="-107"/>
    <component base="blob5" xScale="0" xyScale="-1" yScale="0" yxScale="1" xOffset="2655" yOffset="-433"/>
    <component base="blob6" xScale="0" xyScale="-1.1539" yScale="0" yxScale="1.1539" xOffset="3180" yOffset="-583"/>
    <component base="blob7" xScale="0" xyScale="-0.9753" yScale="0" yxScale="0.9753" xOffset="3671" yOffset="-761"/>
    <component base="blob8" xScale="0" xyScale="-0.7047" yScale="0" yxScale="0.7047" xOffset="4082" yOffset="-808"/>
    <component base="blob9" xScale="0" xyScale="-0.4869" yScale="0" yxScale="0.4869" xOffset="4347" yOffset="-706"/>
    <component base="blob2" xScale="0" xyScale="-1" yScale="0" yxScale="1" xOffset="1055" yOffset="1287"/>
    <component base="blob3" xScale="0" xyScale="-1" yScale="0" yxScale="1" xOffset="595" yOffset="1222"/>
    <component base="blob4" xScale="0" xyScale="-0.8783" yScale="0" yxScale="0.8783" xOffset="403" yOffset="858"/>
    <component base="blob2" xScale="0" xyScale="-1" yScale="0" yxScale="1" xOffset="1884" yOffset="1595"/>
    <component base="blob3" xScale="0" xyScale="-1" yScale="0" yxScale="1" xOffset="1859" yOffset="2076"/>
    <component base="blob4" xScale="0" xyScale="-0.8783" yScale="0" yxScale="0.8783" xOffset="1422" yOffset="2258"/>
    <component base="blob5" xScale="0" xyScale="-1" yScale="0" yxScale="1" xOffset="990" yOffset="2453"/>
    <component base="blob6" xScale="0" xyScale="-1.1539" yScale="0" yxScale="1.1539" xOffset="674" yOffset="2872"/>
    <component base="blob7" xScale="0" xyScale="-0.9753" yScale="0" yxScale="0.9753" xOffset="875" yOffset="3365"/>
    <component base="blob8" xScale="0" xyScale="-0.7047" yScale="0" yxScale="0.7047" xOffset="1190" yOffset="3633"/>
    <component base="blob9" xScale="0" xyScale="-0.4869" yScale="0" yxScale="0.4869" xOffset="1484" yOffset="3562"/>
    <component base="blob5" xScale="0" xyScale="-0.8886" yScale="0" yxScale="0.8886" xOffset="434" yOffset="464"/>
    <component base="blob6" xScale="0" xyScale="-1.1539" yScale="0" yxScale="1.1539" xOffset="832" yOffset="294"/>
    <component base="blob7" xScale="0" xyScale="-0.9753" yScale="0" yxScale="0.9753" xOffset="1211" yOffset="361"/>
    <contour>
      <point x="860" y="1520" type="move" name="above"/>
    </contour>
    <contour>
      <point x="860" y="0" type="move" name="below"/>
    </contour>
    <contour>
      <point x="0" y="1520" type="move" name="half"/>
    </contour>
  </outline>
</glyph>
<glyph name="S" format="1">
  <advance width="1300"/>
  <unicode hex="0053"/>
  <outline>
    <contour>
      <point x="1096" y="1444" type="curve"/>
      <point x="1096" y="1444" type="line"/>
      <point x="1096" y="1247" type="line"/>
      <point x="942.667" y="1320.333"/>
      <point x="808.667" y="1356"/>
      <point x="682" y="1356" type="curve" smooth="yes"/>
      <point x="462" y="1356"/>
      <point x="338" y="1267.333"/>
      <point x="338" y="1110" type="curve" smooth="yes"/>
      <point x="338" y="978"/>
      <point x="401.667" y="920.333"/>
      <point x="623" y="879" type="curve" smooth="yes"/>
      <point x="745" y="854" type="line" smooth="yes"/>
      <point x="1046.333" y="796.667"/>
      <point x="1186" y="654.667"/>
      <point x="1186" y="412" type="curve" smooth="yes"/>
      <point x="1186" y="122.667"/>
      <point x="988.667" y="-29"/>
      <point x="614" y="-29" type="curve" smooth="yes"/>
      <point x="472.667" y="-29"/>
      <point x="311.667" y="3.333"/>
      <point x="141" y="66" type="curve"/>
      <point x="141" y="274" type="line"/>
      <point x="305" y="182"/>
      <point x="462" y="135"/>
      <point x="614" y="135" type="curve" smooth="yes"/>
      <point x="844.667" y="135"/>
      <point x="975" y="229"/>
      <point x="975" y="397" type="curve" smooth="yes"/>
      <point x="975" y="543.667"/>
      <point x="891.333" y="620.667"/>
      <point x="686" y="662" type="curve" smooth="yes"/>
      <point x="563" y="686" type="line" smooth="yes"/>
      <point x="261.667" y="746"/>
      <point x="135" y="866"/>
      <point x="135" y="1094" type="curve" smooth="yes"/>
      <point x="135" y="1358"/>
      <point x="332.333" y="1520"/>
      <point x="659" y="1520" type="curve" smooth="yes"/>
      <point x="799" y="1520"/>
      <point x="944" y="1494.667"/>
    </contour>
    <component base="blob1" xScale="0" xyScale="-1.2886" yScale="0" yxScale="1.2886" xOffset="599" yOffset="1753"/>
    <component base="blob2" xScale="0" xyScale="-1" yScale="0" yxScale="1" xOffset="1014" yOffset="2143"/>
    <component base="blob3" xScale="0" xyScale="-1" yScale="0" yxScale="1" xOffset="1295" yOffset="2566"/>
    <component base="blob4" xScale="0" xyScale="-0.8783" yScale="0" yxScale="0.8783" xOffset="1399" yOffset="3001"/>
    <component base="blob5" xScale="0" xyScale="-1" yScale="0" yxScale="1" xOffset="1431" yOffset="3416"/>
    <component base="blob6" xScale="0" xyScale="-1.1539" yScale="0" yxScale="1.1539" xOffset="1377" yOffset="3957"/>
    <component base="blob7" xScale="0" xyScale="-0.9753" yScale="0" yxScale="0.9753" xOffset="1484" yOffset="4445"/>
    <component base="blob8" xScale="0" xyScale="-0.7047" yScale="0" yxScale="0.7047" xOffset="1744" yOffset="4777"/>
    <component base="blob9" xScale="0" xyScale="-0.4869" yScale="0" yxScale="0.4869" xOffset="1971" yOffset="4931"/>
    <component base="blob2" xScale="0" xyScale="-1.2244" yScale="0" yxScale="1.2244" xOffset="435" yOffset="1144"/>
    <component base="blob3" xScale="0" xyScale="-1" yScale="0" yxScale="1" xOffset="868" yOffset="833"/>
    <component base="blob4" xScale="0" xyScale="-0.8783" yScale="0" yxScale="0.8783" xOffset="1261" yOffset="682"/>
    <component base="blob5" xScale="0" xyScale="-1" yScale="0" yxScale="1" xOffset="1684" yOffset="828"/>
    <component base="blob6" xScale="0" xyScale="-1.1539" yScale="0" yxScale="1.1539" xOffset="1952" yOffset="1273"/>
    <component base="blob7" xScale="0" xyScale="-0.9753" yScale="0" yxScale="0.9753" xOffset="2381" yOffset="1573"/>
    <component base="blob8" xScale="0" xyScale="-0.7047" yScale="0" yxScale="0.7047" xOffset="2792" yOffset="1653"/>
    <component base="blob9" xScale="0" xyScale="-0.4869" yScale="0" yxScale="0.4869" xOffset="3052" yOffset="1596"/>
    <component base="blob1" xScale="0" xyScale="-1.2886" yScale="0" yxScale="1.2886" xOffset="410" yOffset="244"/>
    <component base="blob2" xScale="0" xyScale="-1" yScale="0" yxScale="1" xOffset="39" yOffset="-118"/>
    <component base="blob3" xScale="0" xyScale="-1" yScale="0" yxScale="1" xOffset="-65" yOffset="-612"/>
    <component base="blob4" xScale="0" xyScale="-0.8783" yScale="0" yxScale="0.8783" xOffset="26" yOffset="-1063"/>
    <component base="blob5" xScale="0" xyScale="-1" yScale="0" yxScale="1" xOffset="300" yOffset="-1424"/>
    <component base="blob6" xScale="0" xyScale="-1.1539" yScale="0" yxScale="1.1539" xOffset="310" yOffset="-1920"/>
    <component base="blob7" xScale="0" xyScale="-0.9753" yScale="0" yxScale="0.9753" xOffset="-31" yOffset="-2309"/>
    <component base="blob7" xScale="0" xyScale="-0.9753" yScale="0" yxScale="0.9753" xOffset="-212" yOffset="-2780"/>
    <component base="blob8" xScale="0" xyScale="-0.7047" yScale="0" yxScale="0.7047" xOffset="-48" yOffset="-3158"/>
    <component base="blob9" xScale="0" xyScale="-0.4869" yScale="0" yxScale="0.4869" xOffset="134" yOffset="-3335"/>
    <component base="blob2" xScale="0" xyScale="-1" yScale="0" yxScale="1" xOffset="864" yOffset="303"/>
    <component base="blob3" xScale="0" xyScale="-1" yScale="0" yxScale="1" xOffset="1009" yOffset="655"/>
    <contour>
      <point x="659" y="1520" type="move" name="above"/>
    </contour>
    <contour>
      <point x="659" y="0" type="move" name="below"/>
    </contour>
    <contour>
      <point x="674" y="0" type="move" name="cedilla"/>
    </contour>
    <contour>
      <point x="0" y="1520" type="move" name="half"/>
    </contour>
  </outline>
</glyph>
<glyph name="amacron" format="1">
  <advance width="1255"/>
  <unicode hex="0101"/>
  <outline>
    <component base="macron" xOffset="74"/>
    <component base="a"/>
    <contour>
      <point x="586" y="1556" type="move" name="above-legacy"/>
    </contour>
    <contour>
      <point x="586" y="0" type="move" name="below"/>
    </contour>
    <contour>
      <point x="977" y="0" type="move" name="cedilla"/>
    </contour>
  </outline>
</glyph>
<glyph name="uni01B5" format="1">
  <advance width="1403"/>
  <unicode hex="01B5"/>
  <outline>
    <contour>
      <point x="115" y="1493" type="line"/>
      <point x="1288" y="1493" type="line"/>
      <point x="1288" y="1339" type="line"/>
      <point x="888" y="844" type="line"/>
      <point x="1169" y="844" type="line"/>
      <point x="1169" y="700" type="line"/>
      <point x="772" y="700" type="line"/>
      <point x="344" y="170" type="line"/>
      <point x="1311" y="170" type="line"/>
      <point x="1311" y="0" type="line"/>
      <point x="92" y="0" type="line"/>
      <point x="92" y="154" type="line"/>
      <point x="533" y="700" type="line"/>
      <point x="234" y="700" type="line"/>
      <point x="234" y="844" type="line"/>
      <point x="649" y="844" type="line"/>
      <point x="1036" y="1323" type="line"/>
      <point x="115" y="1323" type="line"/>
    </contour>
    <contour>
      <point x="702" y="1520" type="move" name="above"/>
    </contour>
  </outline>
</glyph>
<glyph name="uni025F" format="1">
  <advance width="569"/>
  <unicode hex="025F"/>
  <outline>
    <contour>
      <point x="193" y="1120" type="line"/>
      <point x="377" y="1120" type="line"/>
      <point x="377" y="616" type="line"/>
      <point x="540" y="616" type="line"/>
      <point x="540" y="452" type="line"/>
      <point x="377" y="452" type="line"/>
      <point x="377" y="-20" type="line" smooth="yes"/>
      <point x="377" y="-234"/>
      <point x="214" y="-426"/>
      <point x="33" y="-426" type="qcurve" smooth="yes"/>
      <point x="-37" y="-426" type="line"/>
      <point x="-37" y="-270" type="line"/>
      <point x="12" y="-270" type="line" smooth="yes"/>
      <point x="117" y="-270"/>
      <point x="193" y="-173"/>
      <point x="193" y="-20" type="qcurve" smooth="yes"/>
      <point x="193" y="452" type="line"/>
      <point x="12" y="452" type="line"/>
      <point x="12" y="616" type="line"/>
      <point x="193" y="616" type="line"/>
    </contour>
    <contour>
      <point x="287" y="1147" type="move" name="above"/>
    </contour>
    <contour>
      <point x="287" y="-430" type="move" name="below"/>
    </contour>
  </outline>
</glyph>
<glyph name="uni0279" format="1">
  <advance width="848"/>
  <unicode hex="0279"/>
  <outline>
    <contour>
      <point x="471" y="174" type="line"/>
      <point x="356.706" y="-27"/>
      <point x="94" y="-27" type="qcurve" smooth="yes"/>
      <point x="57" y="-27"/>
      <point x="1" y="-17" type="qcurve"/>
      <point x="0" y="172" type="line"/>
      <point x="60.277" y="137"/>
      <point x="148" y="137" type="qcurve" smooth="yes"/>
      <point x="304" y="137"/>
      <point x="471" y="340"/>
      <point x="471" y="530" type="qcurve" smooth="yes"/>
      <point x="471" y="1120" type="line"/>
      <point x="656" y="1120" type="line"/>
      <point x="656" y="0" type="line"/>
      <point x="471" y="0" type="line"/>
    </contour>
    <contour>
      <point x="563" y="1147" type="move" name="above"/>
    </contour>
    <contour>
      <point x="565" y="0" type="move" name="below"/>
    </contour>
  </outline>
</glyph>
<glyph name="uni028D" format="1">
  <advance width="1675"/>
  <unicode hex="028D"/>
  <outline>
    <contour>
      <point x="1589" y="0" type="line"/>
      <point x="1405" y="0" type="line"/>
      <point x="1175" y="874" type="line"/>
      <point x="946" y="0" type="line"/>
      <point x="729" y="0" type="line"/>
      <point x="499" y="874" type="line"/>
      <point x="270" y="0" type="line"/>
      <point x="86" y="0" type="line"/>
      <point x="379" y="1120" type="line"/>
      <point x="596" y="1120" type="line"/>
      <point x="837" y="202" type="line"/>
      <point x="1079" y="1120" type="line"/>
      <point x="1296" y="1120" type="line"/>
    </contour>
    <contour>
      <point x="839" y="1147" type="move" name="above"/>
    </contour>
    <contour>
      <point x="839" y="0" type="move" name="below"/>
    </contour>
  </outline>
</glyph>
<glyph name="uni031D" format="1">
  <advance width="0"/>
  <unicode hex="031D"/>
  <outline>
    <contour>
      <point x="-444" y="-356" type="line"/>
      <point x="-267" y="-356" type="line"/>
      <point x="-267" y="-492" type="line"/>
      <point x="-757" y="-492" type="line"/>
      <point x="-757" y="-356" type="line"/>
      <point x="-580" y="-356" type="line"/>
      <point x="-580" y="-179" type="line"/>
      <point x="-444" y="-179" type="line"/>
    </contour>
    <contour>
      <point x="-512" y="-1" type="move" name="_Ligature below"/>
    </contour>
    <contour>
      <point x="-512" y="-1" type="move" name="_below"/>
    </contour>
    <contour>
      <point x="-512" y="0" type="move" name="_below-mark"/>
    </contour>
    <contour>
      <point x="-512" y="-491" type="move" name="below-mark"/>
    </contour>
  </outline>
</glyph>
<glyph name="uni0344" format="1">
  <advance width="0"/>
  <unicode hex="0344"/>
  <outline>
    <component base="dieresistonos" xOffset="-1008"/>
    <contour>
      <point x="-512" y="1147" type="move" name="_above"/>
    </contour>
    <contour>
      <point x="-512" y="1282" type="move" name="_above-mark"/>
    </contour>
    <contour>
      <point x="-512" y="2000" type="move" name="above-mark"/>
    </contour>
  </outline>
</glyph>
<glyph name="uni0347" format="1">
  <advance width="0"/>
  <unicode hex="0347"/>
  <outline>
    <contour>
      <point x="-287" y="-462" type="line"/>
      <point x="-737" y="-462" type="line"/>
      <point x="-737" y="-342" type="line"/>
      <point x="-287" y="-342" type="line"/>
    </contour>
    <contour>
      <point x="-287" y="-192" type="line"/>
      <point x="-737" y="-192" type="line"/>
      <point x="-737" y="-72" type="line"/>
      <point x="-287" y="-72" type="line"/>
    </contour>
    <contour>
      <point x="-512" y="-1" type="move" name="_Ligature below"/>
    </contour>
    <contour>
      <point x="-512" y="-1" type="move" name="_below"/>
    </contour>
    <contour>
      <point x="-512" y="0" type="move" name="_below-mark"/>
    </contour>
    <contour>
      <point x="-512" y="-498" type="move" name="below-mark"/>
    </contour>
  </outline>
</glyph>
<glyph name="uni035E" format="1">
  <advance width="0"/>
  <unicode hex="035E"/>
  <outline>
    <contour>
      <point x="-912" y="1899" type="line"/>
      <point x="912" y="1899" type="line"/>
      <point x="912" y="1751" type="line"/>
      <point x="-912" y="1751" type="line"/>
    </contour>
    <contour>
      <point x="0" y="1902" type="move" name="above-mark"/>
    </contour>
  </outline>
</glyph>
<glyph name="uni0412" format="1">
  <advance width="1405"/>
  <unicode hex="0412"/>
  <outline>
    <component base="B"/>
    <contour>
      <point x="700" y="1520" type="move" name="above"/>
    </contour>
  </outline>
</glyph>
<glyph name="uni0415" format="1">
  <advance width="1294"/>
  <unicode hex="0415"/>
  <outline>
    <component base="E"/>
    <contour>
      <point x="670" y="1520" type="move" name="above"/>
    </contour>
  </outline>
</glyph>
<glyph name="uni0433" format="1">
  <advance width="1076"/>
  <unicode hex="0433"/>
  <outline>
    <contour>
      <point x="186" y="0" type="line"/>
      <point x="186" y="1120" type="line"/>
      <point x="976" y="1120" type="line"/>
      <point x="976" y="973" type="line"/>
      <point x="371" y="973" type="line"/>
      <point x="371" y="0" type="line"/>
    </contour>
    <contour>
      <point x="581" y="1147" type="move" name="above"/>
    </contour>
  </outline>
</glyph>
<glyph name="uni0446" format="1">
  <advance width="1394"/>
  <unicode hex="0446"/>
  <outline>
    <contour>
      <point x="1153" y="0" type="line"/>
      <point x="186" y="0" type="line"/>
      <point x="186" y="1120" type="line"/>
      <point x="371" y="1120" type="line"/>
      <point x="371" y="147" type="line"/>
      <point x="968" y="147" type="line"/>
      <point x="968" y="1120" type="line"/>
      <point x="1153" y="1120" type="line"/>
      <point x="1153" y="147" type="line"/>
      <point x="1300" y="147" type="line"/>
      <point x="1300" y="-283" type="line"/>
      <point x="1153" y="-283" type="line"/>
    </contour>
    <contour>
      <point x="669" y="1147" type="move" name="above"/>
    </contour>
  </outline>
</glyph>
<glyph name="uni0670" format="1">
  <advance width="0"/>
  <unicode hex="0670"/>
  <outline>
    <contour>
      <point x="457" y="1233" type="line"/>
      <point x="457" y="1817" type="line"/>
      <point x="567" y="1817" type="line"/>
      <point x="567" y="1233" type="line"/>
    </contour>
    <contour>
      <point x="512" y="1200" type="move" name="_Ligature rtl-above"/>
    </contour>
    <contour>
      <point x="512" y="1200" type="move" name="_rtl-above"/>
    </contour>
    <contour>
      <point x="512" y="1200" type="move" name="_rtl-above-mark"/>
    </contour>
    <contour>
      <point x="512" y="1850" type="move" name="rtl-above-mark"/>
    </contour>
  </outline>
</glyph>
<glyph name="uni06BF" format="1">
  <advance width="1322"/>
  <unicode hex="06BF"/>
  <outline>
    <component base="arabic_3dots_a" xOffset="662" yOffset="150"/>
    <component base="uni062D"/>
    <component base="arabic_dot" xOffset="575" yOffset="1050"/>
    <contour>
      <point x="650" y="1250" type="move" name="rtl-above"/>
    </contour>
    <contour>
      <point x="812" y="-600" type="move" name="rtl-below"/>
    </contour>
  </outline>
</glyph>
<glyph name="uni07E5" format="1">
  <advance width="1070"/>
  <unicode hex="07E5"/>
  <outline>
    <contour>
      <point x="378" y="734" type="line"/>
      <point x="378" y="147" type="line"/>
      <point x="693" y="147" type="line"/>
      <point x="693" y="734" type="line"/>
    </contour>
    <contour>
      <point x="193" y="881" type="line"/>
      <point x="693" y="881" type="line"/>
      <point x="693" y="1346" type="line"/>
      <point x="193" y="1346" type="line"/>
      <point x="193" y="1493" type="line"/>
      <point x="877" y="1493" type="line"/>
      <point x="877" y="0" type="line"/>
      <point x="193" y="0" type="line"/>
    </contour>
    <contour>
      <point x="539.5" y="1520" type="move" name="rtl-above"/>
    </contour>
    <contour>
      <point x="539.5" y="0" type="move" name="rtl-below"/>
    </contour>
  </outline>
</glyph>
<glyph name="uni20DC" format="1">
  <advance width="0"/>
  <unicode hex="20DC"/>
  <outline>
    <contour>
      <point x="-27" y="1552" type="line"/>
      <point x="176" y="1552" type="line"/>
      <point x="176" y="1350" type="line"/>
      <point x="-27" y="1350" type="line"/>
    </contour>
    <contour>
      <point x="-1200" y="1552" type="line"/>
      <point x="-997" y="1552" type="line"/>
      <point x="-997" y="1350" type="line"/>
      <point x="-1200" y="1350" type="line"/>
    </contour>
    <contour>
      <point x="-418" y="1552" type="line"/>
      <point x="-215" y="1552" type="line"/>
      <point x="-215" y="1350" type="line"/>
      <point x="-418" y="1350" type="line"/>
    </contour>
    <contour>
      <point x="-809" y="1552" type="line"/>
      <point x="-606" y="1552" type="line"/>
      <point x="-606" y="1350" type="line"/>
      <point x="-809" y="1350" type="line"/>
    </contour>
    <contour>
      <point x="-512" y="1147" type="move"/>
    </contour>
    <contour>
      <point x="-512" y="1147" type="move" name="_above"/>
    </contour>
    <contour>
      <point x="-512" y="1282" type="move" name="_above-mark"/>
    </contour>
    <contour>
      <point x="-512" y="1556" type="move" name="above-mark"/>
    </contour>
  </outline>
</glyph>
<glyph name="uni2C6B" format="1">
  <advance width="1403"/>
  <unicode hex="2C6B"/>
  <outline>
    <contour>
      <point x="115" y="1493" type="line"/>
      <point x="1288" y="1493" type="line"/>
      <point x="1288" y="1339" type="line"/>
      <point x="344" y="170" type="line"/>
      <point x="1512" y="170" type="line"/>
      <point x="1512" y="-321" type="line"/>
      <point x="1311" y="-321" type="line"/>
      <point x="1311" y="0" type="line"/>
      <point x="92" y="0" type="line"/>
      <point x="92" y="154" type="line"/>
      <point x="1036" y="1323" type="line"/>
      <point x="115" y="1323" type="line"/>
    </contour>
    <contour>
      <point x="702" y="1520" type="move" name="above"/>
    </contour>
    <contour>
      <point x="702" y="0" type="move" name="below"/>
    </contour>
  </outline>
</glyph>
<glyph name="uni2C6E" format="1">
  <advance width="1767"/>
  <unicode hex="2C6E"/>
  <outline>
    <contour>
      <point x="201" y="1493" type="line"/>
      <point x="502" y="1493" type="line"/>
      <point x="883" y="477" type="line"/>
      <point x="1266" y="1493" type="line"/>
      <point x="1567" y="1493" type="line"/>
      <point x="1567" y="104" type="line" smooth="yes"/>
      <point x="1567" y="-166"/>
      <point x="1362" y="-410"/>
      <point x="1135" y="-410" type="qcurve" smooth="yes"/>
      <point x="1058" y="-410" type="line"/>
      <point x="1058" y="-240" type="line"/>
      <point x="1126" y="-240" type="line" smooth="yes"/>
      <point x="1260" y="-240"/>
      <point x="1370" y="-90"/>
      <point x="1370" y="104" type="qcurve" smooth="yes"/>
      <point x="1370" y="1311" type="line"/>
      <point x="985" y="287" type="line"/>
      <point x="782" y="287" type="line"/>
      <point x="397" y="1311" type="line"/>
      <point x="397" y="0" type="line"/>
      <point x="201" y="0" type="line"/>
    </contour>
    <contour>
      <point x="883" y="1520" type="move" name="above"/>
    </contour>
    <contour>
      <point x="883" y="-430" type="move" name="below"/>
    </contour>
    <contour>
      <point x="0" y="1520" type="move" name="half"/>
    </contour>
  </outline>
</glyph>
<glyph name="uni2C73" format="1">
  <advance width="1969"/>
  <unicode hex="2C73"/>
  <outline>
    <contour>
      <point x="1350" y="904" type="line" smooth="yes"/>
      <point x="1373" y="990"/>
      <point x="1430" y="1051" type="qcurve" smooth="yes"/>
      <point x="1521" y="1147"/>
      <point x="1653" y="1147" type="qcurve" smooth="yes"/>
      <point x="1784" y="1147"/>
      <point x="1969" y="956"/>
      <point x="1969" y="822" type="qcurve" smooth="yes"/>
      <point x="1969" y="708" type="line"/>
      <point x="1791" y="708" type="line"/>
      <point x="1791" y="822" type="line" smooth="yes"/>
      <point x="1791" y="880"/>
      <point x="1710" y="964"/>
      <point x="1596" y="964"/>
      <point x="1555" y="922" type="qcurve" smooth="yes"/>
      <point x="1531" y="897"/>
      <point x="1525" y="877" type="qcurve" smooth="yes"/>
      <point x="1296" y="0" type="line"/>
      <point x="1079" y="0" type="line"/>
      <point x="838" y="918" type="line"/>
      <point x="596" y="0" type="line"/>
      <point x="379" y="0" type="line"/>
      <point x="86" y="1120" type="line"/>
      <point x="270" y="1120" type="line"/>
      <point x="500" y="246" type="line"/>
      <point x="729" y="1120" type="line"/>
      <point x="946" y="1120" type="line"/>
      <point x="1176" y="246" type="line"/>
    </contour>
    <contour>
      <point x="839" y="1147" type="move" name="above"/>
    </contour>
    <contour>
      <point x="839" y="0" type="move" name="below"/>
    </contour>
    <contour>
      <point x="0" y="1520" type="move" name="half"/>
    </contour>
  </outline>
</glyph>
<glyph name="uniA7FA" format="1">
  <advance width="1874"/>
  <unicode hex="A7FA"/>
  <outline>
    <component base="uni0448"/>
    <contour>
      <point x="937" y="1147" type="move" name="above"/>
    </contour>
    <contour>
      <point x="937" y="0" type="move" name="below"/>
    </contour>
  </outline>
</glyph>
<glyph name="uniFB59" format="1">
  <advance width="618"/>
  <unicode hex="FB59"/>
  <outline>
    <component base="uni066E.medi"/>
    <component base="arabic_3dots_a" xOffset="99" yOffset="-250"/>
    <contour>
      <point x="299" y="1000" type="move" name="rtl-above"/>
    </contour>
    <contour>
      <point x="299" y="-550" type="move" name="rtl-below"/>
    </contour>
  </outline>
</glyph>
<glyph name="uniFB67" format="1">
  <advance width="2011"/>
  <unicode hex="FB67"/>
  <outline>
    <component base="uni066E.fina"/>
    <component base="uni0615" xOffset="388" yOffset="-600"/>
    <contour>
      <point x="900" y="1250" type="move" name="rtl-above"/>
    </contour>
    <contour>
      <point x="900" y="-150" type="move" name="rtl-below"/>
    </contour>
  </outline>
</glyph>
<glyph name="uniFB6A" format="1">
  <advance width="2123"/>
  <unicode hex="FB6A"/>
  <outline>
    <component base="arabic_3dots" xOffset="1400" yOffset="1150"/>
    <component base="uni06A1"/>
    <contour>
      <point x="700" y="1100" type="move" name="rtl-above"/>
    </contour>
    <contour>
      <point x="800" y="-200" type="move" name="rtl-below"/>
    </contour>
  </outline>
</glyph>
<glyph name="uniFE71" format="1">
  <advance width="600"/>
  <unicode hex="FE71"/>
  <outline>
    <component base="uni0640"/>
    <component base="uni064B" xOffset="-212"/>
    <contour>
      <point x="300" y="1700" type="move" name="rtl-above"/>
    </contour>
    <contour>
      <point x="300" y="-100" type="move" name="rtl-below"/>
    </contour>
  </outline>
</glyph>
<glyph name="uniFE7A" format="1">
  <advance width="600"/>
  <unicode hex="FE7A"/>
  <outline>
    <component base="uni0650" xOffset="-212"/>
    <contour>
      <point x="300" y="1200" type="move" name="rtl-above"/>
    </contour>
    <contour>
      <point x="300" y="-300" type="move" name="rtl-below"/>
    </contour>
  </outline>
</glyph>
<glyph name="uniFE7B" format="1">
  <advance width="600"/>
  <unicode hex="FE7B"/>
  <outline>
    <component base="uni0650" xOffset="-212"/>
    <component base="uni0640"/>
    <contour>
      <point x="300" y="1200" type="move" name="rtl-above"/>
    </contour>
    <contour>
      <point x="300" y="-300" type="move" name="rtl-below"/>
    </contour>
  </outline>
</glyph>
<glyph name="uniFE82" format="1">
  <advance width="624"/>
  <unicode hex="FE82"/>
  <outline>
    <component base="uniFE8E"/>
    <component base="uni0653" xOffset="-227" yOffset="450"/>
    <contour>
      <point x="285" y="2000" type="move" name="rtl-above"/>
    </contour>
    <contour>
      <point x="285" y="-100" type="move" name="rtl-below"/>
    </contour>
  </outline>
</glyph>
<glyph name="uniFE88" format="1">
  <advance width="624"/>
  <unicode hex="FE88"/>
  <outline>
    <component base="uniFE8E"/>
    <component base="uni0655" xOffset="-227"/>
    <contour>
      <point x="285" y="1650" type="move" name="rtl-above"/>
    </contour>
    <contour>
      <point x="285" y="-600" type="move" name="rtl-below"/>
    </contour>
  </outline>
</glyph>
<glyph name="uniFE91" format="1">
  <advance width="570"/>
  <unicode hex="FE91"/>
  <outline>
    <component base="uni066E.init"/>
    <component base="arabic_dot" xOffset="224" yOffset="-300"/>
    <contour>
      <point x="299" y="1000" type="move" name="rtl-above"/>
    </contour>
    <contour>
      <point x="299" y="-350" type="move" name="rtl-below"/>
    </contour>
  </outline>
</glyph>
<glyph name="uniFE9B" format="1">
  <advance width="570"/>
  <unicode hex="FE9B"/>
  <outline>
    <component base="uni066E.init"/>
    <component base="arabic_3dots" xOffset="99" yOffset="850"/>
    <contour>
      <point x="299" y="1300" type="move" name="rtl-above"/>
    </contour>
    <contour>
      <point x="299" y="-100" type="move" name="rtl-below"/>
    </contour>
  </outline>
</glyph>
<glyph name="uniFEAB" format="1">
  <advance width="912"/>
  <unicode hex="FEAB"/>
  <outline>
    <component base="arabic_dot" xOffset="325" yOffset="1050"/>
    <component base="uni062F"/>
    <contour>
      <point x="400" y="1250" type="move" name="rtl-above"/>
    </contour>
    <contour>
      <point x="450" y="-150" type="move" name="rtl-below"/>
    </contour>
  </outline>
</glyph>
<glyph name="uniFEDD" format="1">
  <advance width="1488"/>
  <unicode hex="FEDD"/>
  <outline>
    <component base="uni0644"/>
    <contour>
      <point x="650" y="1300" type="move" name="rtl-above"/>
    </contour>
    <contour>
      <point x="700" y="-450" type="move" name="rtl-below"/>
    </contour>
  </outline>
</glyph>
<glyph name="Ringabove" format="1">
  <advance width="0"/>
  <outline>
    <component base="ring" xOffset="-1026" yOffset="-230"/>
    <contour>
      <point x="-512" y="1147" type="move" name="_above"/>
    </contour>
    <contour>
      <point x="-512" y="1147" type="move" name="_above-mark"/>
    </contour>
    <contour>
      <point x="-512" y="1566" type="move" name="above-mark"/>
    </contour>
  </outline>
</glyph>
<glyph name="blob5" format="1">
  <advance width="44"/>
  <outline>
    <contour>
      <point x="22" y="-264" type="curve" smooth="yes"/>
      <point x="-125" y="-264"/>
      <point x="-242" y="-147"/>
      <point x="-242" y="0" type="curve" smooth="yes"/>
      <point x="-242" y="147"/>
      <point x="-125" y="264"/>
      <point x="22" y="264" type="curve" smooth="yes"/>
      <point x="169" y="264"/>
      <point x="286" y="147"/>
      <point x="286" y="0" type="curve" smooth="yes"/>
      <point x="286" y="-147"/>
      <point x="169" y="-264"/>
    </contour>
  </outline>
</glyph>
<glyph name="blob6" format="1">
  <advance width="44"/>
  <outline>
    <contour>
      <point x="22" y="-176" type="curve" smooth="yes"/>
      <point x="-76" y="-176"/>
      <point x="-154" y="-98"/>
      <point x="-154" y="0" type="curve" smooth="yes"/>
      <point x="-154" y="98"/>
      <point x="-76" y="176"/>
      <point x="22" y="176" type="curve" smooth="yes"/>
      <point x="120" y="176"/>
      <point x="198" y="98"/>
      <point x="198" y="0" type="curve" smooth="yes"/>
      <point x="198" y="-98"/>
      <point x="120" y="-176"/>
    </contour>
  </outline>
</glyph>
<glyph name="uni069D.init" format="1">
  <advance width="1739"/>
  <outline>
    <component base="uniFEBB"/>
    <component base="arabic_2dots" xOffset="600" yOffset="-350"/>
    <contour>
      <point x="550" y="800" type="move" name="rtl-above"/>
    </contour>
    <contour>
      <point x="800" y="-400" type="move" name="rtl-below"/>
    </contour>
  </outline>
</glyph>
<glyph name="uni06A7.init" format="1">
  <advance width="979"/>
  <outline>
    <component base="uni066F.init"/>
    <component base="arabic_dot" xOffset="425" yOffset="1150"/>
    <contour>
      <point x="500" y="1350" type="move" name="rtl-above"/>
    </contour>
    <contour>
      <point x="500" y="-150" type="move" name="rtl-below"/>
    </contour>
  </outline>
</glyph>
<glyph name="uni06B7.fina" format="1">
  <advance width="1551"/>
  <outline>
    <component base="uniFEDE"/>
    <component base="arabic_3dots" xOffset="1000" yOffset="1700"/>
    <contour>
      <point x="1212" y="2150" type="move" name="rtl-above"/>
    </contour>
    <contour>
      <point x="700" y="-450" type="move" name="rtl-below"/>
    </contour>
  </outline>
</glyph>
<glyph name="uni06B9.fina" format="1">
  <advance width="1559"/>
  <outline>
    <component base="uniFB9F"/>
    <component base="arabic_dot" xOffset="575" yOffset="550"/>
    <component base="arabic_dot" xOffset="700" yOffset="-825"/>
    <contour>
      <point x="650" y="750" type="move" name="rtl-above"/>
    </contour>
    <contour>
      <point x="775" y="-875" type="move" name="rtl-below"/>
    </contour>
  </outline>
</glyph>
<glyph name="uni06BD.init" format="1">
  <advance width="570"/>
  <outline>
    <component base="uni066E.init"/>
    <component base="arabic_3dots_a" xOffset="99" yOffset="-250"/>
    <contour>
      <point x="299" y="1000" type="move" name="rtl-above"/>
    </contour>
    <contour>
      <point x="299" y="-550" type="move" name="rtl-below"/>
    </contour>
  </outline>
</glyph>
<glyph name="uni07CD.init" format="1">
  <advance width="1212"/>
  <outline>
    <contour>
      <point x="256" y="0" type="line"/>
      <point x="-20" y="0" type="line"/>
      <point x="-20" y="147" type="line"/>
      <point x="116" y="147" type="line"/>
      <point x="481" y="881" type="line"/>
      <point x="731" y="881" type="line"/>
      <point x="1151" y="0" type="line"/>
      <point x="956" y="0" type="line"/>
      <point x="606" y="701" type="line"/>
    </contour>
    <contour>
      <point x="606" y="1520" type="move" name="rtl-above"/>
    </contour>
    <contour>
      <point x="606" y="0" type="move" name="rtl-below"/>
    </contour>
  </outline>
</glyph>
<glyph name="uni07E3.init" format="1">
  <advance width="1085"/>
  <outline>
    <contour>
      <point x="-20" y="0" type="line"/>
      <point x="-20" y="147" type="line"/>
      <point x="709" y="147" type="line"/>
      <point x="709" y="1346" type="line"/>
      <point x="378" y="1346" type="line"/>
      <point x="378" y="1031" type="line"/>
      <point x="193" y="1031" type="line"/>
      <point x="193" y="1493" type="line"/>
      <point x="893" y="1493" type="line"/>
      <point x="893" y="0" type="line"/>
    </contour>
    <contour>
      <point x="794" y="1520" type="move" name="rtl-above"/>
    </contour>
    <contour>
      <point x="794" y="0" type="move" name="rtl-below"/>
    </contour>
  </outline>
</glyph>
